<?xml version="1.0" standalone="no"?>
<!DOCTYPE svg PUBLIC "-//W3C//DTD SVG 20010904//EN"
 "http://www.w3.org/TR/2001/REC-SVG-20010904/DTD/svg10.dtd">
<svg version="1.0" xmlns="http://www.w3.org/2000/svg"
 width="860.000000pt" height="900.000000pt" viewBox="0 0 860.000000 900.000000"
 preserveAspectRatio="xMidYMid meet">

<g transform="translate(0.000000,900.000000) scale(0.100000,-0.100000)"
fill="#fff" stroke="none">
<path d="M3995 8589 c-821 -68 -1563 -363 -2205 -875 -173 -138 -465 -430
-604 -604 -700 -874 -1002 -1973 -845 -3075 159 -1119 785 -2117 1724 -2751
1247 -842 2864 -911 4180 -179 166 92 404 253 565 381 173 138 466 431 602
602 461 578 745 1231 847 1947 157 1104 -143 2195 -847 3077 -136 171 -429
464 -602 602 -612 490 -1319 781 -2105 866 -136 15 -575 21 -710 9z m510 -359
c1229 -74 2318 -742 2940 -1804 83 -142 205 -400 263 -556 303 -819 303 -1717
0 -2540 -95 -260 -275 -598 -445 -837 -461 -650 -1146 -1144 -1906 -1373 -812
-245 -1700 -198 -2475 131 -1080 459 -1877 1416 -2131 2559 -177 795 -81 1630
269 2356 191 398 409 704 722 1016 484 482 1102 820 1768 967 336 75 659 101
995 81z"/>
<path d="M4375 6889 c-173 -25 -309 -91 -421 -203 -118 -119 -177 -238 -225
-454 -20 -87 -22 -135 -26 -477 -4 -272 -8 -382 -16 -387 -7 -4 -112 -8 -234
-8 l-223 0 0 -380 0 -380 235 0 235 0 0 -1155 0 -1155 375 0 375 0 0 1155 0
1155 383 0 384 0 11 78 c6 42 32 207 57 366 25 159 45 295 45 303 0 10 -84 13
-437 15 l-438 3 0 245 c1 200 4 255 17 300 24 78 72 146 125 177 81 47 132 53
471 53 l312 0 0 380 0 380 -472 -1 c-260 -1 -500 -5 -533 -10z"/>
</g>
</svg>
