<?xml version="1.0" standalone="no"?>
<!DOCTYPE svg PUBLIC "-//W3C//DTD SVG 20010904//EN"
 "http://www.w3.org/TR/2001/REC-SVG-20010904/DTD/svg10.dtd">
<svg version="1.0" xmlns="http://www.w3.org/2000/svg"
 width="640.000000pt" height="640.000000pt" viewBox="0 0 640.000000 640.000000"
 preserveAspectRatio="xMidYMid meet">

<g transform="translate(0.000000,640.000000) scale(0.100000,-0.100000)"
fill="#fff" stroke="none">
<path d="M3060 5554 c-212 -18 -375 -48 -547 -100 -673 -203 -1226 -708 -1496
-1364 -180 -440 -222 -962 -112 -1425 103 -436 315 -816 632 -1131 594 -592
1445 -823 2258 -612 925 240 1615 1022 1740 1973 20 152 23 423 6 570 -62 531
-298 1020 -675 1398 -366 368 -831 600 -1343 671 -112 16 -379 27 -463 20z
m425 -199 c131 -17 339 -69 465 -114 519 -190 967 -597 1206 -1096 92 -190
154 -387 190 -599 22 -127 29 -427 15 -567 -75 -726 -507 -1364 -1151 -1702
-200 -105 -418 -178 -665 -223 -138 -25 -545 -26 -686 -1 -577 101 -1060 394
-1403 851 -199 265 -331 572 -397 921 -27 139 -37 464 -20 616 75 661 451
1253 1021 1609 241 151 560 265 848 305 136 18 435 18 577 0z"/>
<path d="M2441 4364 c-199 -53 -354 -209 -406 -409 -22 -88 -23 -1421 0 -1509
47 -180 174 -322 351 -393 l69 -28 719 -3 c623 -2 726 -1 779 13 203 52 359
207 412 410 22 88 23 1421 0 1510 -51 199 -211 359 -410 410 -86 22 -1432 21
-1514 -1z m1500 -140 c30 -9 73 -27 97 -41 61 -36 148 -136 174 -202 l23 -56
0 -725 0 -725 -23 -56 c-26 -66 -113 -166 -174 -202 -99 -58 -91 -57 -838 -57
-738 0 -741 0 -830 52 -50 30 -116 95 -150 148 -61 96 -60 87 -60 840 0 599 2
693 16 741 38 131 144 238 274 280 50 16 114 18 746 18 606 1 697 -1 745 -15z"/>
<path d="M3913 4058 c-110 -29 -113 -196 -3 -229 98 -30 183 57 150 155 -19
59 -82 91 -147 74z"/>
<path d="M3018 3940 c-141 -35 -266 -108 -370 -217 -138 -145 -208 -321 -208
-523 0 -333 210 -618 535 -727 72 -24 94 -27 225 -27 131 0 153 3 225 27 223
75 396 235 481 446 127 315 19 694 -256 896 -174 128 -421 177 -632 125z m336
-156 c158 -38 313 -165 384 -315 48 -99 62 -162 62 -269 0 -169 -57 -308 -175
-425 -117 -118 -256 -175 -425 -175 -169 0 -308 57 -425 175 -118 117 -175
256 -175 425 0 107 14 170 62 269 67 139 209 262 360 310 92 30 222 32 332 5z"/>
</g>
</svg>
