<?xml version="1.0" standalone="no"?>
<!DOCTYPE svg PUBLIC "-//W3C//DTD SVG 20010904//EN"
 "http://www.w3.org/TR/2001/REC-SVG-20010904/DTD/svg10.dtd">
<svg version="1.0" xmlns="http://www.w3.org/2000/svg"
 width="225.000000pt" height="225.000000pt" viewBox="0 0 225.000000 225.000000"
 preserveAspectRatio="xMidYMid meet">

<g class="icon" transform="translate(0.000000,225.000000) scale(0.100000,-0.100000)"
fill="#fff" stroke="none">
<path id="twitter"  d="M930 2054 c-373 -79 -663 -377 -736 -752 -18 -94 -18 -260 0 -354 73
-379 367 -677 745 -753 115 -24 334 -16 439 14 327 95 579 352 666 681 24 87
32 290 16 386 -62 386 -362 700 -742 778 -95 20 -297 20 -388 0z m339 -84
c196 -32 394 -150 522 -311 71 -89 118 -176 155 -289 26 -79 28 -97 28 -245 0
-148 -2 -166 -28 -245 -171 -522 -739 -761 -1217 -514 -197 103 -351 289 -425
514 -26 79 -28 97 -28 245 0 148 2 166 28 245 37 113 84 200 155 289 125 158
327 279 516 310 72 12 220 12 294 1z"/>
<path d="M1300 1570 c-105 -20 -181 -109 -184 -219 -2 -56 -2 -56 -31 -53
-121 11 -257 73 -367 166 l-76 64 -11 -43 c-22 -87 -7 -152 48 -217 l35 -41
-29 6 c-17 3 -38 9 -47 12 -14 6 -18 2 -18 -14 0 -61 65 -150 133 -181 l38
-17 -30 -6 c-17 -4 -38 -4 -46 -1 -19 8 -19 0 -1 -34 24 -46 79 -91 136 -110
l54 -19 -47 -27 c-60 -35 -115 -52 -202 -61 l-69 -8 57 -29 c79 -40 174 -59
287 -59 114 0 196 18 291 67 80 40 183 132 236 212 48 73 100 226 109 320 7
70 8 73 58 123 28 29 46 54 41 56 -6 2 -32 -3 -58 -11 -26 -8 -47 -13 -47 -12
0 2 18 22 40 45 39 41 52 68 28 57 -7 -2 -37 -12 -66 -21 -52 -16 -54 -16 -75
3 -49 44 -121 64 -187 52z"/>
</g>
</svg>
